# xmcd
#
# Track frame offsets:
#	150
#	17168
#	32303
#	49090
#	66108
#	87813
#	103909
#	123167
#	140194
#	157139
#	177634
#	197296
#	214784
#	232083
#	246723
#	265311
#	280484
#	297701
#	316087
#	334187
#
# Disc length: 4672 seconds
#
# Revision: 0
# Processed by: cddbd v1.5.1PL0 Copyright (c) Steve Scherf et al.
# Submitted via: dBpowerAMP V4.0
#
DISCID=3c123e14
DTITLE=Twogether - Funk cd 2
DYEAR=2003
DGENRE=Funk
TTITLE0=01 - Instant Funk - I Got My Mind Made Up
TTITLE1=02 - Positive Force - We Got The Funk
TTITLE2=03 - The Whippers - It s A Love Thing
TTITLE3=04 - Shalamar - Make That Move
TTITLE4=05 - Dynasty - I Don t Wanna Be A Freak
TTITLE5=06 - Emotions - Best Of My Love
TTITLE6=07 - Jocelyn Brown - Somebody Else s Guy
TTITLE7=08 - Luther Vandross - Never Too Much
TTITLE8=09 - Hot Chocolate - Sexy Thing
TTITLE9=10 - Georges Clinton - Loopzilla
TTITLE10=11 - Millie Jackson and Isaac Hayes - Sweet Music Soft Lights And You
TTITLE11=12 - Curtis Mayfield - Superfly
TTITLE12=13 - Bobby Womack - Across 110th Street
TTITLE13=14 - Fatback Band - Do The Bus Stop
TTITLE14=15 - Bohannon - The Bohannon Walk
TTITLE15=16 - Lyn Collins - Think
TTITLE16=17 - Bass Construction - Fascinating You
TTITLE17=18 - Skipworth and Turner - Thinking About Your Love
TTITLE18=19 - Gwen Mc Crae - All This Love That I m Givin
TTITLE19=20 - Maze - Back In Stride
EXTD=
EXTT0=
EXTT1=
EXTT2=
EXTT3=
EXTT4=
EXTT5=
EXTT6=
EXTT7=
EXTT8=
EXTT9=
EXTT10=
EXTT11=
EXTT12=
EXTT13=
EXTT14=
EXTT15=
EXTT16=
EXTT17=
EXTT18=
EXTT19=
PLAYORDER=
